<?xml version="1.0" encoding="utf-8" standalone="no"?>
<!DOCTYPE svg PUBLIC "-//W3C//DTD SVG 1.1//EN"
  "http://www.w3.org/Graphics/SVG/1.1/DTD/svg11.dtd">
<svg xmlns:xlink="http://www.w3.org/1999/xlink" width="462.845pt" height="182.478665pt" viewBox="0 0 462.845 182.478665" xmlns="http://www.w3.org/2000/svg" version="1.1">
 <metadata>
  <rdf:RDF xmlns:dc="http://purl.org/dc/elements/1.1/" xmlns:cc="http://creativecommons.org/ns#" xmlns:rdf="http://www.w3.org/1999/02/22-rdf-syntax-ns#">
   <cc:Work>
    <dc:type rdf:resource="http://purl.org/dc/dcmitype/StillImage"/>
    <dc:date>2026-04-09T13:46:31.291460</dc:date>
    <dc:format>image/svg+xml</dc:format>
    <dc:creator>
     <cc:Agent>
      <dc:title>Matplotlib v3.9.2, https://matplotlib.org/</dc:title>
     </cc:Agent>
    </dc:creator>
   </cc:Work>
  </rdf:RDF>
 </metadata>
 <defs>
  <style type="text/css">*{stroke-linejoin: round; stroke-linecap: butt}</style>
 </defs>
 <g id="figure_1">
  <g id="patch_1">
   <path d="M 0 182.478665 
L 462.845 182.478665 
L 462.845 -0 
L 0 -0 
z
" style="fill: #ffffff"/>
  </g>
  <g id="axes_1">
   <g id="patch_2">
    <path d="M 41.2125 146.501544 
L 431.8125 146.501544 
L 431.8125 10.239375 
L 41.2125 10.239375 
z
" style="fill: #ffffff"/>
   </g>
   <g id="patch_3">
    <path d="M 119.3325 146.501544 
L 136.6925 146.501544 
L 136.6925 129.605035 
L 119.3325 129.605035 
z
" clip-path="url(#pc8e664083b)" style="fill: #1f77b4"/>
   </g>
   <g id="patch_4">
    <path d="M 141.0325 146.501544 
L 158.3925 146.501544 
L 158.3925 96.62959 
L 141.0325 96.62959 
z
" clip-path="url(#pc8e664083b)" style="fill: #1f77b4"/>
   </g>
   <g id="patch_5">
    <path d="M 162.7325 146.501544 
L 180.0925 146.501544 
L 180.0925 132.330278 
L 162.7325 132.330278 
z
" clip-path="url(#pc8e664083b)" style="fill: #1f77b4"/>
   </g>
   <g id="patch_6">
    <path d="M 184.4325 146.501544 
L 201.7925 146.501544 
L 201.7925 145.820233 
L 184.4325 145.820233 
z
" clip-path="url(#pc8e664083b)" style="fill: #1f77b4"/>
   </g>
   <g id="patch_7">
    <path d="M 206.1325 146.501544 
L 223.4925 146.501544 
L 223.4925 137.644503 
L 206.1325 137.644503 
z
" clip-path="url(#pc8e664083b)" style="fill: #1f77b4"/>
   </g>
   <g id="patch_8">
    <path d="M 227.8325 146.501544 
L 245.1925 146.501544 
L 245.1925 146.501544 
L 227.8325 146.501544 
z
" clip-path="url(#pc8e664083b)" style="fill: #1f77b4"/>
   </g>
   <g id="patch_9">
    <path d="M 249.5325 146.501544 
L 266.8925 146.501544 
L 266.8925 145.411446 
L 249.5325 145.411446 
z
" clip-path="url(#pc8e664083b)" style="fill: #1f77b4"/>
   </g>
   <g id="patch_10">
    <path d="M 271.2325 146.501544 
L 288.5925 146.501544 
L 288.5925 146.501544 
L 271.2325 146.501544 
z
" clip-path="url(#pc8e664083b)" style="fill: #1f77b4"/>
   </g>
   <g id="patch_11">
    <path d="M 292.9325 146.501544 
L 310.2925 146.501544 
L 310.2925 44.986228 
L 292.9325 44.986228 
z
" clip-path="url(#pc8e664083b)" style="fill: #1f77b4"/>
   </g>
   <g id="patch_12">
    <path d="M 314.6325 146.501544 
L 331.9925 146.501544 
L 331.9925 128.106151 
L 314.6325 128.106151 
z
" clip-path="url(#pc8e664083b)" style="fill: #1f77b4"/>
   </g>
   <g id="patch_13">
    <path d="M 336.3325 146.501544 
L 353.6925 146.501544 
L 353.6925 143.094989 
L 336.3325 143.094989 
z
" clip-path="url(#pc8e664083b)" style="fill: #1f77b4"/>
   </g>
   <g id="patch_14">
    <path d="M 358.0325 146.501544 
L 375.3925 146.501544 
L 375.3925 146.501544 
L 358.0325 146.501544 
z
" clip-path="url(#pc8e664083b)" style="fill: #1f77b4"/>
   </g>
   <g id="patch_15">
    <path d="M 379.7325 146.501544 
L 397.0925 146.501544 
L 397.0925 130.286346 
L 379.7325 130.286346 
z
" clip-path="url(#pc8e664083b)" style="fill: #1f77b4"/>
   </g>
   <g id="patch_16">
    <path d="M 401.4325 146.501544 
L 418.7925 146.501544 
L 418.7925 119.112848 
L 401.4325 119.112848 
z
" clip-path="url(#pc8e664083b)" style="fill: #1f77b4"/>
   </g>
   <g id="matplotlib.axis_1">
    <g id="xtick_1">
     <g id="line2d_1">
      <defs>
       <path id="m0079d735f3" d="M 0 0 
L 0 3.5 
" style="stroke: #000000; stroke-width: 0.8"/>
      </defs>
      <g>
       <use xlink:href="#m0079d735f3" x="128.0125" y="146.501544" style="stroke: #000000; stroke-width: 0.8"/>
      </g>
     </g>
     <g id="text_1">
      <!-- 08/20 -->
      <g transform="translate(121.422265 174.102216) rotate(-45) scale(0.08 -0.08)">
       <defs>
        <path id="DejaVuSans-30" d="M 2034 4250 
Q 1547 4250 1301 3770 
Q 1056 3291 1056 2328 
Q 1056 1369 1301 889 
Q 1547 409 2034 409 
Q 2525 409 2770 889 
Q 3016 1369 3016 2328 
Q 3016 3291 2770 3770 
Q 2525 4250 2034 4250 
z
M 2034 4750 
Q 2819 4750 3233 4129 
Q 3647 3509 3647 2328 
Q 3647 1150 3233 529 
Q 2819 -91 2034 -91 
Q 1250 -91 836 529 
Q 422 1150 422 2328 
Q 422 3509 836 4129 
Q 1250 4750 2034 4750 
z
" transform="scale(0.015625)"/>
        <path id="DejaVuSans-38" d="M 2034 2216 
Q 1584 2216 1326 1975 
Q 1069 1734 1069 1313 
Q 1069 891 1326 650 
Q 1584 409 2034 409 
Q 2484 409 2743 651 
Q 3003 894 3003 1313 
Q 3003 1734 2745 1975 
Q 2488 2216 2034 2216 
z
M 1403 2484 
Q 997 2584 770 2862 
Q 544 3141 544 3541 
Q 544 4100 942 4425 
Q 1341 4750 2034 4750 
Q 2731 4750 3128 4425 
Q 3525 4100 3525 3541 
Q 3525 3141 3298 2862 
Q 3072 2584 2669 2484 
Q 3125 2378 3379 2068 
Q 3634 1759 3634 1313 
Q 3634 634 3220 271 
Q 2806 -91 2034 -91 
Q 1263 -91 848 271 
Q 434 634 434 1313 
Q 434 1759 690 2068 
Q 947 2378 1403 2484 
z
M 1172 3481 
Q 1172 3119 1398 2916 
Q 1625 2713 2034 2713 
Q 2441 2713 2670 2916 
Q 2900 3119 2900 3481 
Q 2900 3844 2670 4047 
Q 2441 4250 2034 4250 
Q 1625 4250 1398 4047 
Q 1172 3844 1172 3481 
z
" transform="scale(0.015625)"/>
        <path id="DejaVuSans-2f" d="M 1625 4666 
L 2156 4666 
L 531 -594 
L 0 -594 
L 1625 4666 
z
" transform="scale(0.015625)"/>
        <path id="DejaVuSans-32" d="M 1228 531 
L 3431 531 
L 3431 0 
L 469 0 
L 469 531 
Q 828 903 1448 1529 
Q 2069 2156 2228 2338 
Q 2531 2678 2651 2914 
Q 2772 3150 2772 3378 
Q 2772 3750 2511 3984 
Q 2250 4219 1831 4219 
Q 1534 4219 1204 4116 
Q 875 4013 500 3803 
L 500 4441 
Q 881 4594 1212 4672 
Q 1544 4750 1819 4750 
Q 2544 4750 2975 4387 
Q 3406 4025 3406 3419 
Q 3406 3131 3298 2873 
Q 3191 2616 2906 2266 
Q 2828 2175 2409 1742 
Q 1991 1309 1228 531 
z
" transform="scale(0.015625)"/>
       </defs>
       <use xlink:href="#DejaVuSans-30"/>
       <use xlink:href="#DejaVuSans-38" x="63.623047"/>
       <use xlink:href="#DejaVuSans-2f" x="127.246094"/>
       <use xlink:href="#DejaVuSans-32" x="160.9375"/>
       <use xlink:href="#DejaVuSans-30" x="224.560547"/>
      </g>
     </g>
    </g>
    <g id="xtick_2">
     <g id="line2d_2">
      <g>
       <use xlink:href="#m0079d735f3" x="149.7125" y="146.501544" style="stroke: #000000; stroke-width: 0.8"/>
      </g>
     </g>
     <g id="text_2">
      <!-- 08/21 -->
      <g transform="translate(143.122265 174.102216) rotate(-45) scale(0.08 -0.08)">
       <defs>
        <path id="DejaVuSans-31" d="M 794 531 
L 1825 531 
L 1825 4091 
L 703 3866 
L 703 4441 
L 1819 4666 
L 2450 4666 
L 2450 531 
L 3481 531 
L 3481 0 
L 794 0 
L 794 531 
z
" transform="scale(0.015625)"/>
       </defs>
       <use xlink:href="#DejaVuSans-30"/>
       <use xlink:href="#DejaVuSans-38" x="63.623047"/>
       <use xlink:href="#DejaVuSans-2f" x="127.246094"/>
       <use xlink:href="#DejaVuSans-32" x="160.9375"/>
       <use xlink:href="#DejaVuSans-31" x="224.560547"/>
      </g>
     </g>
    </g>
    <g id="xtick_3">
     <g id="line2d_3">
      <g>
       <use xlink:href="#m0079d735f3" x="171.4125" y="146.501544" style="stroke: #000000; stroke-width: 0.8"/>
      </g>
     </g>
     <g id="text_3">
      <!-- 08/22 -->
      <g transform="translate(164.822265 174.102216) rotate(-45) scale(0.08 -0.08)">
       <use xlink:href="#DejaVuSans-30"/>
       <use xlink:href="#DejaVuSans-38" x="63.623047"/>
       <use xlink:href="#DejaVuSans-2f" x="127.246094"/>
       <use xlink:href="#DejaVuSans-32" x="160.9375"/>
       <use xlink:href="#DejaVuSans-32" x="224.560547"/>
      </g>
     </g>
    </g>
    <g id="xtick_4">
     <g id="line2d_4">
      <g>
       <use xlink:href="#m0079d735f3" x="193.1125" y="146.501544" style="stroke: #000000; stroke-width: 0.8"/>
      </g>
     </g>
     <g id="text_4">
      <!-- 08/23 -->
      <g transform="translate(186.522265 174.102216) rotate(-45) scale(0.08 -0.08)">
       <defs>
        <path id="DejaVuSans-33" d="M 2597 2516 
Q 3050 2419 3304 2112 
Q 3559 1806 3559 1356 
Q 3559 666 3084 287 
Q 2609 -91 1734 -91 
Q 1441 -91 1130 -33 
Q 819 25 488 141 
L 488 750 
Q 750 597 1062 519 
Q 1375 441 1716 441 
Q 2309 441 2620 675 
Q 2931 909 2931 1356 
Q 2931 1769 2642 2001 
Q 2353 2234 1838 2234 
L 1294 2234 
L 1294 2753 
L 1863 2753 
Q 2328 2753 2575 2939 
Q 2822 3125 2822 3475 
Q 2822 3834 2567 4026 
Q 2313 4219 1838 4219 
Q 1578 4219 1281 4162 
Q 984 4106 628 3988 
L 628 4550 
Q 988 4650 1302 4700 
Q 1616 4750 1894 4750 
Q 2613 4750 3031 4423 
Q 3450 4097 3450 3541 
Q 3450 3153 3228 2886 
Q 3006 2619 2597 2516 
z
" transform="scale(0.015625)"/>
       </defs>
       <use xlink:href="#DejaVuSans-30"/>
       <use xlink:href="#DejaVuSans-38" x="63.623047"/>
       <use xlink:href="#DejaVuSans-2f" x="127.246094"/>
       <use xlink:href="#DejaVuSans-32" x="160.9375"/>
       <use xlink:href="#DejaVuSans-33" x="224.560547"/>
      </g>
     </g>
    </g>
    <g id="xtick_5">
     <g id="line2d_5">
      <g>
       <use xlink:href="#m0079d735f3" x="214.8125" y="146.501544" style="stroke: #000000; stroke-width: 0.8"/>
      </g>
     </g>
     <g id="text_5">
      <!-- 08/24 -->
      <g transform="translate(208.222265 174.102216) rotate(-45) scale(0.08 -0.08)">
       <defs>
        <path id="DejaVuSans-34" d="M 2419 4116 
L 825 1625 
L 2419 1625 
L 2419 4116 
z
M 2253 4666 
L 3047 4666 
L 3047 1625 
L 3713 1625 
L 3713 1100 
L 3047 1100 
L 3047 0 
L 2419 0 
L 2419 1100 
L 313 1100 
L 313 1709 
L 2253 4666 
z
" transform="scale(0.015625)"/>
       </defs>
       <use xlink:href="#DejaVuSans-30"/>
       <use xlink:href="#DejaVuSans-38" x="63.623047"/>
       <use xlink:href="#DejaVuSans-2f" x="127.246094"/>
       <use xlink:href="#DejaVuSans-32" x="160.9375"/>
       <use xlink:href="#DejaVuSans-34" x="224.560547"/>
      </g>
     </g>
    </g>
    <g id="xtick_6">
     <g id="line2d_6">
      <g>
       <use xlink:href="#m0079d735f3" x="236.5125" y="146.501544" style="stroke: #000000; stroke-width: 0.8"/>
      </g>
     </g>
     <g id="text_6">
      <!-- 08/25 -->
      <g transform="translate(229.922265 174.102216) rotate(-45) scale(0.08 -0.08)">
       <defs>
        <path id="DejaVuSans-35" d="M 691 4666 
L 3169 4666 
L 3169 4134 
L 1269 4134 
L 1269 2991 
Q 1406 3038 1543 3061 
Q 1681 3084 1819 3084 
Q 2600 3084 3056 2656 
Q 3513 2228 3513 1497 
Q 3513 744 3044 326 
Q 2575 -91 1722 -91 
Q 1428 -91 1123 -41 
Q 819 9 494 109 
L 494 744 
Q 775 591 1075 516 
Q 1375 441 1709 441 
Q 2250 441 2565 725 
Q 2881 1009 2881 1497 
Q 2881 1984 2565 2268 
Q 2250 2553 1709 2553 
Q 1456 2553 1204 2497 
Q 953 2441 691 2322 
L 691 4666 
z
" transform="scale(0.015625)"/>
       </defs>
       <use xlink:href="#DejaVuSans-30"/>
       <use xlink:href="#DejaVuSans-38" x="63.623047"/>
       <use xlink:href="#DejaVuSans-2f" x="127.246094"/>
       <use xlink:href="#DejaVuSans-32" x="160.9375"/>
       <use xlink:href="#DejaVuSans-35" x="224.560547"/>
      </g>
     </g>
    </g>
    <g id="xtick_7">
     <g id="line2d_7">
      <g>
       <use xlink:href="#m0079d735f3" x="258.2125" y="146.501544" style="stroke: #000000; stroke-width: 0.8"/>
      </g>
     </g>
     <g id="text_7">
      <!-- 08/26 -->
      <g transform="translate(251.622265 174.102216) rotate(-45) scale(0.08 -0.08)">
       <defs>
        <path id="DejaVuSans-36" d="M 2113 2584 
Q 1688 2584 1439 2293 
Q 1191 2003 1191 1497 
Q 1191 994 1439 701 
Q 1688 409 2113 409 
Q 2538 409 2786 701 
Q 3034 994 3034 1497 
Q 3034 2003 2786 2293 
Q 2538 2584 2113 2584 
z
M 3366 4563 
L 3366 3988 
Q 3128 4100 2886 4159 
Q 2644 4219 2406 4219 
Q 1781 4219 1451 3797 
Q 1122 3375 1075 2522 
Q 1259 2794 1537 2939 
Q 1816 3084 2150 3084 
Q 2853 3084 3261 2657 
Q 3669 2231 3669 1497 
Q 3669 778 3244 343 
Q 2819 -91 2113 -91 
Q 1303 -91 875 529 
Q 447 1150 447 2328 
Q 447 3434 972 4092 
Q 1497 4750 2381 4750 
Q 2619 4750 2861 4703 
Q 3103 4656 3366 4563 
z
" transform="scale(0.015625)"/>
       </defs>
       <use xlink:href="#DejaVuSans-30"/>
       <use xlink:href="#DejaVuSans-38" x="63.623047"/>
       <use xlink:href="#DejaVuSans-2f" x="127.246094"/>
       <use xlink:href="#DejaVuSans-32" x="160.9375"/>
       <use xlink:href="#DejaVuSans-36" x="224.560547"/>
      </g>
     </g>
    </g>
    <g id="xtick_8">
     <g id="line2d_8">
      <g>
       <use xlink:href="#m0079d735f3" x="279.9125" y="146.501544" style="stroke: #000000; stroke-width: 0.8"/>
      </g>
     </g>
     <g id="text_8">
      <!-- 08/27 -->
      <g transform="translate(273.322265 174.102216) rotate(-45) scale(0.08 -0.08)">
       <defs>
        <path id="DejaVuSans-37" d="M 525 4666 
L 3525 4666 
L 3525 4397 
L 1831 0 
L 1172 0 
L 2766 4134 
L 525 4134 
L 525 4666 
z
" transform="scale(0.015625)"/>
       </defs>
       <use xlink:href="#DejaVuSans-30"/>
       <use xlink:href="#DejaVuSans-38" x="63.623047"/>
       <use xlink:href="#DejaVuSans-2f" x="127.246094"/>
       <use xlink:href="#DejaVuSans-32" x="160.9375"/>
       <use xlink:href="#DejaVuSans-37" x="224.560547"/>
      </g>
     </g>
    </g>
    <g id="xtick_9">
     <g id="line2d_9">
      <g>
       <use xlink:href="#m0079d735f3" x="301.6125" y="146.501544" style="stroke: #000000; stroke-width: 0.8"/>
      </g>
     </g>
     <g id="text_9">
      <!-- 08/28 -->
      <g transform="translate(295.022265 174.102216) rotate(-45) scale(0.08 -0.08)">
       <use xlink:href="#DejaVuSans-30"/>
       <use xlink:href="#DejaVuSans-38" x="63.623047"/>
       <use xlink:href="#DejaVuSans-2f" x="127.246094"/>
       <use xlink:href="#DejaVuSans-32" x="160.9375"/>
       <use xlink:href="#DejaVuSans-38" x="224.560547"/>
      </g>
     </g>
    </g>
    <g id="xtick_10">
     <g id="line2d_10">
      <g>
       <use xlink:href="#m0079d735f3" x="323.3125" y="146.501544" style="stroke: #000000; stroke-width: 0.8"/>
      </g>
     </g>
     <g id="text_10">
      <!-- 08/29 -->
      <g transform="translate(316.722265 174.102216) rotate(-45) scale(0.08 -0.08)">
       <defs>
        <path id="DejaVuSans-39" d="M 703 97 
L 703 672 
Q 941 559 1184 500 
Q 1428 441 1663 441 
Q 2288 441 2617 861 
Q 2947 1281 2994 2138 
Q 2813 1869 2534 1725 
Q 2256 1581 1919 1581 
Q 1219 1581 811 2004 
Q 403 2428 403 3163 
Q 403 3881 828 4315 
Q 1253 4750 1959 4750 
Q 2769 4750 3195 4129 
Q 3622 3509 3622 2328 
Q 3622 1225 3098 567 
Q 2575 -91 1691 -91 
Q 1453 -91 1209 -44 
Q 966 3 703 97 
z
M 1959 2075 
Q 2384 2075 2632 2365 
Q 2881 2656 2881 3163 
Q 2881 3666 2632 3958 
Q 2384 4250 1959 4250 
Q 1534 4250 1286 3958 
Q 1038 3666 1038 3163 
Q 1038 2656 1286 2365 
Q 1534 2075 1959 2075 
z
" transform="scale(0.015625)"/>
       </defs>
       <use xlink:href="#DejaVuSans-30"/>
       <use xlink:href="#DejaVuSans-38" x="63.623047"/>
       <use xlink:href="#DejaVuSans-2f" x="127.246094"/>
       <use xlink:href="#DejaVuSans-32" x="160.9375"/>
       <use xlink:href="#DejaVuSans-39" x="224.560547"/>
      </g>
     </g>
    </g>
    <g id="xtick_11">
     <g id="line2d_11">
      <g>
       <use xlink:href="#m0079d735f3" x="345.0125" y="146.501544" style="stroke: #000000; stroke-width: 0.8"/>
      </g>
     </g>
     <g id="text_11">
      <!-- 08/30 -->
      <g transform="translate(338.422265 174.102216) rotate(-45) scale(0.08 -0.08)">
       <use xlink:href="#DejaVuSans-30"/>
       <use xlink:href="#DejaVuSans-38" x="63.623047"/>
       <use xlink:href="#DejaVuSans-2f" x="127.246094"/>
       <use xlink:href="#DejaVuSans-33" x="160.9375"/>
       <use xlink:href="#DejaVuSans-30" x="224.560547"/>
      </g>
     </g>
    </g>
    <g id="xtick_12">
     <g id="line2d_12">
      <g>
       <use xlink:href="#m0079d735f3" x="366.7125" y="146.501544" style="stroke: #000000; stroke-width: 0.8"/>
      </g>
     </g>
     <g id="text_12">
      <!-- 08/31 -->
      <g transform="translate(360.122265 174.102216) rotate(-45) scale(0.08 -0.08)">
       <use xlink:href="#DejaVuSans-30"/>
       <use xlink:href="#DejaVuSans-38" x="63.623047"/>
       <use xlink:href="#DejaVuSans-2f" x="127.246094"/>
       <use xlink:href="#DejaVuSans-33" x="160.9375"/>
       <use xlink:href="#DejaVuSans-31" x="224.560547"/>
      </g>
     </g>
    </g>
    <g id="xtick_13">
     <g id="line2d_13">
      <g>
       <use xlink:href="#m0079d735f3" x="388.4125" y="146.501544" style="stroke: #000000; stroke-width: 0.8"/>
      </g>
     </g>
     <g id="text_13">
      <!-- 09/01 -->
      <g transform="translate(381.822265 174.102216) rotate(-45) scale(0.08 -0.08)">
       <use xlink:href="#DejaVuSans-30"/>
       <use xlink:href="#DejaVuSans-39" x="63.623047"/>
       <use xlink:href="#DejaVuSans-2f" x="127.246094"/>
       <use xlink:href="#DejaVuSans-30" x="160.9375"/>
       <use xlink:href="#DejaVuSans-31" x="224.560547"/>
      </g>
     </g>
    </g>
    <g id="xtick_14">
     <g id="line2d_14">
      <g>
       <use xlink:href="#m0079d735f3" x="410.1125" y="146.501544" style="stroke: #000000; stroke-width: 0.8"/>
      </g>
     </g>
     <g id="text_14">
      <!-- 09/02 -->
      <g transform="translate(403.522265 174.102216) rotate(-45) scale(0.08 -0.08)">
       <use xlink:href="#DejaVuSans-30"/>
       <use xlink:href="#DejaVuSans-39" x="63.623047"/>
       <use xlink:href="#DejaVuSans-2f" x="127.246094"/>
       <use xlink:href="#DejaVuSans-30" x="160.9375"/>
       <use xlink:href="#DejaVuSans-32" x="224.560547"/>
      </g>
     </g>
    </g>
   </g>
   <g id="matplotlib.axis_2">
    <g id="ytick_1">
     <g id="line2d_15">
      <defs>
       <path id="m6fb3385cff" d="M 0 0 
L -3.5 0 
" style="stroke: #1f77b4; stroke-width: 0.8"/>
      </defs>
      <g>
       <use xlink:href="#m6fb3385cff" x="41.2125" y="146.501544" style="fill: #1f77b4; stroke: #1f77b4; stroke-width: 0.8"/>
      </g>
     </g>
     <g id="text_15">
      <!-- 0 -->
      <g style="fill: #1f77b4" transform="translate(29.1225 149.540919) scale(0.08 -0.08)">
       <use xlink:href="#DejaVuSans-30"/>
      </g>
     </g>
    </g>
    <g id="ytick_2">
     <g id="line2d_16">
      <g>
       <use xlink:href="#m6fb3385cff" x="41.2125" y="119.24911" style="fill: #1f77b4; stroke: #1f77b4; stroke-width: 0.8"/>
      </g>
     </g>
     <g id="text_16">
      <!-- 20 -->
      <g style="fill: #1f77b4" transform="translate(24.0325 122.288485) scale(0.08 -0.08)">
       <use xlink:href="#DejaVuSans-32"/>
       <use xlink:href="#DejaVuSans-30" x="63.623047"/>
      </g>
     </g>
    </g>
    <g id="ytick_3">
     <g id="line2d_17">
      <g>
       <use xlink:href="#m6fb3385cff" x="41.2125" y="91.996676" style="fill: #1f77b4; stroke: #1f77b4; stroke-width: 0.8"/>
      </g>
     </g>
     <g id="text_17">
      <!-- 40 -->
      <g style="fill: #1f77b4" transform="translate(24.0325 95.036051) scale(0.08 -0.08)">
       <use xlink:href="#DejaVuSans-34"/>
       <use xlink:href="#DejaVuSans-30" x="63.623047"/>
      </g>
     </g>
    </g>
    <g id="ytick_4">
     <g id="line2d_18">
      <g>
       <use xlink:href="#m6fb3385cff" x="41.2125" y="64.744242" style="fill: #1f77b4; stroke: #1f77b4; stroke-width: 0.8"/>
      </g>
     </g>
     <g id="text_18">
      <!-- 60 -->
      <g style="fill: #1f77b4" transform="translate(24.0325 67.783617) scale(0.08 -0.08)">
       <use xlink:href="#DejaVuSans-36"/>
       <use xlink:href="#DejaVuSans-30" x="63.623047"/>
      </g>
     </g>
    </g>
    <g id="ytick_5">
     <g id="line2d_19">
      <g>
       <use xlink:href="#m6fb3385cff" x="41.2125" y="37.491809" style="fill: #1f77b4; stroke: #1f77b4; stroke-width: 0.8"/>
      </g>
     </g>
     <g id="text_19">
      <!-- 80 -->
      <g style="fill: #1f77b4" transform="translate(24.0325 40.531184) scale(0.08 -0.08)">
       <use xlink:href="#DejaVuSans-38"/>
       <use xlink:href="#DejaVuSans-30" x="63.623047"/>
      </g>
     </g>
    </g>
    <g id="ytick_6">
     <g id="line2d_20">
      <g>
       <use xlink:href="#m6fb3385cff" x="41.2125" y="10.239375" style="fill: #1f77b4; stroke: #1f77b4; stroke-width: 0.8"/>
      </g>
     </g>
     <g id="text_20">
      <!-- 100 -->
      <g style="fill: #1f77b4" transform="translate(18.9425 13.27875) scale(0.08 -0.08)">
       <use xlink:href="#DejaVuSans-31"/>
       <use xlink:href="#DejaVuSans-30" x="63.623047"/>
       <use xlink:href="#DejaVuSans-30" x="127.246094"/>
      </g>
     </g>
    </g>
    <g id="text_21">
     <!-- Daily Rainfall (mm) -->
     <g style="fill: #1f77b4" transform="translate(13.27875 116.816709) rotate(-90) scale(0.08 -0.08)">
      <defs>
       <path id="DejaVuSans-44" d="M 1259 4147 
L 1259 519 
L 2022 519 
Q 2988 519 3436 956 
Q 3884 1394 3884 2338 
Q 3884 3275 3436 3711 
Q 2988 4147 2022 4147 
L 1259 4147 
z
M 628 4666 
L 1925 4666 
Q 3281 4666 3915 4102 
Q 4550 3538 4550 2338 
Q 4550 1131 3912 565 
Q 3275 0 1925 0 
L 628 0 
L 628 4666 
z
" transform="scale(0.015625)"/>
       <path id="DejaVuSans-61" d="M 2194 1759 
Q 1497 1759 1228 1600 
Q 959 1441 959 1056 
Q 959 750 1161 570 
Q 1363 391 1709 391 
Q 2188 391 2477 730 
Q 2766 1069 2766 1631 
L 2766 1759 
L 2194 1759 
z
M 3341 1997 
L 3341 0 
L 2766 0 
L 2766 531 
Q 2569 213 2275 61 
Q 1981 -91 1556 -91 
Q 1019 -91 701 211 
Q 384 513 384 1019 
Q 384 1609 779 1909 
Q 1175 2209 1959 2209 
L 2766 2209 
L 2766 2266 
Q 2766 2663 2505 2880 
Q 2244 3097 1772 3097 
Q 1472 3097 1187 3025 
Q 903 2953 641 2809 
L 641 3341 
Q 956 3463 1253 3523 
Q 1550 3584 1831 3584 
Q 2591 3584 2966 3190 
Q 3341 2797 3341 1997 
z
" transform="scale(0.015625)"/>
       <path id="DejaVuSans-69" d="M 603 3500 
L 1178 3500 
L 1178 0 
L 603 0 
L 603 3500 
z
M 603 4863 
L 1178 4863 
L 1178 4134 
L 603 4134 
L 603 4863 
z
" transform="scale(0.015625)"/>
       <path id="DejaVuSans-6c" d="M 603 4863 
L 1178 4863 
L 1178 0 
L 603 0 
L 603 4863 
z
" transform="scale(0.015625)"/>
       <path id="DejaVuSans-79" d="M 2059 -325 
Q 1816 -950 1584 -1140 
Q 1353 -1331 966 -1331 
L 506 -1331 
L 506 -850 
L 844 -850 
Q 1081 -850 1212 -737 
Q 1344 -625 1503 -206 
L 1606 56 
L 191 3500 
L 800 3500 
L 1894 763 
L 2988 3500 
L 3597 3500 
L 2059 -325 
z
" transform="scale(0.015625)"/>
       <path id="DejaVuSans-20" transform="scale(0.015625)"/>
       <path id="DejaVuSans-52" d="M 2841 2188 
Q 3044 2119 3236 1894 
Q 3428 1669 3622 1275 
L 4263 0 
L 3584 0 
L 2988 1197 
Q 2756 1666 2539 1819 
Q 2322 1972 1947 1972 
L 1259 1972 
L 1259 0 
L 628 0 
L 628 4666 
L 2053 4666 
Q 2853 4666 3247 4331 
Q 3641 3997 3641 3322 
Q 3641 2881 3436 2590 
Q 3231 2300 2841 2188 
z
M 1259 4147 
L 1259 2491 
L 2053 2491 
Q 2509 2491 2742 2702 
Q 2975 2913 2975 3322 
Q 2975 3731 2742 3939 
Q 2509 4147 2053 4147 
L 1259 4147 
z
" transform="scale(0.015625)"/>
       <path id="DejaVuSans-6e" d="M 3513 2113 
L 3513 0 
L 2938 0 
L 2938 2094 
Q 2938 2591 2744 2837 
Q 2550 3084 2163 3084 
Q 1697 3084 1428 2787 
Q 1159 2491 1159 1978 
L 1159 0 
L 581 0 
L 581 3500 
L 1159 3500 
L 1159 2956 
Q 1366 3272 1645 3428 
Q 1925 3584 2291 3584 
Q 2894 3584 3203 3211 
Q 3513 2838 3513 2113 
z
" transform="scale(0.015625)"/>
       <path id="DejaVuSans-66" d="M 2375 4863 
L 2375 4384 
L 1825 4384 
Q 1516 4384 1395 4259 
Q 1275 4134 1275 3809 
L 1275 3500 
L 2222 3500 
L 2222 3053 
L 1275 3053 
L 1275 0 
L 697 0 
L 697 3053 
L 147 3053 
L 147 3500 
L 697 3500 
L 697 3744 
Q 697 4328 969 4595 
Q 1241 4863 1831 4863 
L 2375 4863 
z
" transform="scale(0.015625)"/>
       <path id="DejaVuSans-28" d="M 1984 4856 
Q 1566 4138 1362 3434 
Q 1159 2731 1159 2009 
Q 1159 1288 1364 580 
Q 1569 -128 1984 -844 
L 1484 -844 
Q 1016 -109 783 600 
Q 550 1309 550 2009 
Q 550 2706 781 3412 
Q 1013 4119 1484 4856 
L 1984 4856 
z
" transform="scale(0.015625)"/>
       <path id="DejaVuSans-6d" d="M 3328 2828 
Q 3544 3216 3844 3400 
Q 4144 3584 4550 3584 
Q 5097 3584 5394 3201 
Q 5691 2819 5691 2113 
L 5691 0 
L 5113 0 
L 5113 2094 
Q 5113 2597 4934 2840 
Q 4756 3084 4391 3084 
Q 3944 3084 3684 2787 
Q 3425 2491 3425 1978 
L 3425 0 
L 2847 0 
L 2847 2094 
Q 2847 2600 2669 2842 
Q 2491 3084 2119 3084 
Q 1678 3084 1418 2786 
Q 1159 2488 1159 1978 
L 1159 0 
L 581 0 
L 581 3500 
L 1159 3500 
L 1159 2956 
Q 1356 3278 1631 3431 
Q 1906 3584 2284 3584 
Q 2666 3584 2933 3390 
Q 3200 3197 3328 2828 
z
" transform="scale(0.015625)"/>
       <path id="DejaVuSans-29" d="M 513 4856 
L 1013 4856 
Q 1481 4119 1714 3412 
Q 1947 2706 1947 2009 
Q 1947 1309 1714 600 
Q 1481 -109 1013 -844 
L 513 -844 
Q 928 -128 1133 580 
Q 1338 1288 1338 2009 
Q 1338 2731 1133 3434 
Q 928 4138 513 4856 
z
" transform="scale(0.015625)"/>
      </defs>
      <use xlink:href="#DejaVuSans-44"/>
      <use xlink:href="#DejaVuSans-61" x="77.001953"/>
      <use xlink:href="#DejaVuSans-69" x="138.28125"/>
      <use xlink:href="#DejaVuSans-6c" x="166.064453"/>
      <use xlink:href="#DejaVuSans-79" x="193.847656"/>
      <use xlink:href="#DejaVuSans-20" x="253.027344"/>
      <use xlink:href="#DejaVuSans-52" x="284.814453"/>
      <use xlink:href="#DejaVuSans-61" x="352.046875"/>
      <use xlink:href="#DejaVuSans-69" x="413.326172"/>
      <use xlink:href="#DejaVuSans-6e" x="441.109375"/>
      <use xlink:href="#DejaVuSans-66" x="504.488281"/>
      <use xlink:href="#DejaVuSans-61" x="539.693359"/>
      <use xlink:href="#DejaVuSans-6c" x="600.972656"/>
      <use xlink:href="#DejaVuSans-6c" x="628.755859"/>
      <use xlink:href="#DejaVuSans-20" x="656.539062"/>
      <use xlink:href="#DejaVuSans-28" x="688.326172"/>
      <use xlink:href="#DejaVuSans-6d" x="727.339844"/>
      <use xlink:href="#DejaVuSans-6d" x="824.751953"/>
      <use xlink:href="#DejaVuSans-29" x="922.164062"/>
     </g>
    </g>
   </g>
   <g id="line2d_21">
    <path d="M 41.2125 94.450298 
L 431.8125 94.450298 
" clip-path="url(#pc8e664083b)" style="fill: none; stroke-dasharray: 7.4,3.2; stroke-dashoffset: 0; stroke: #6baed6; stroke-width: 2"/>
   </g>
   <g id="line2d_22">
    <path d="M 41.2125 46.628593 
L 431.8125 46.628593 
" clip-path="url(#pc8e664083b)" style="fill: none; stroke-dasharray: 7.4,3.2; stroke-dashoffset: 0; stroke: #2171b5; stroke-width: 2"/>
   </g>
   <g id="patch_17">
    <path d="M 41.2125 146.501544 
L 41.2125 10.239375 
" style="fill: none; stroke: #000000; stroke-width: 0.8; stroke-linejoin: miter; stroke-linecap: square"/>
   </g>
   <g id="patch_18">
    <path d="M 431.8125 146.501544 
L 431.8125 10.239375 
" style="fill: none; stroke: #000000; stroke-width: 0.8; stroke-linejoin: miter; stroke-linecap: square"/>
   </g>
   <g id="patch_19">
    <path d="M 41.2125 146.501544 
L 431.8125 146.501544 
" style="fill: none; stroke: #000000; stroke-width: 0.8; stroke-linejoin: miter; stroke-linecap: square"/>
   </g>
   <g id="patch_20">
    <path d="M 41.2125 10.239375 
L 431.8125 10.239375 
" style="fill: none; stroke: #000000; stroke-width: 0.8; stroke-linejoin: miter; stroke-linecap: square"/>
   </g>
   <g id="text_22">
    <!-- 2-yr rainfall -->
    <g style="fill: #6baed6" transform="translate(61.5875 83.828298) scale(0.08 -0.08)">
     <defs>
      <path id="DejaVuSans-2d" d="M 313 2009 
L 1997 2009 
L 1997 1497 
L 313 1497 
L 313 2009 
z
" transform="scale(0.015625)"/>
      <path id="DejaVuSans-72" d="M 2631 2963 
Q 2534 3019 2420 3045 
Q 2306 3072 2169 3072 
Q 1681 3072 1420 2755 
Q 1159 2438 1159 1844 
L 1159 0 
L 581 0 
L 581 3500 
L 1159 3500 
L 1159 2956 
Q 1341 3275 1631 3429 
Q 1922 3584 2338 3584 
Q 2397 3584 2469 3576 
Q 2541 3569 2628 3553 
L 2631 2963 
z
" transform="scale(0.015625)"/>
     </defs>
     <use xlink:href="#DejaVuSans-32"/>
     <use xlink:href="#DejaVuSans-2d" x="63.623047"/>
     <use xlink:href="#DejaVuSans-79" x="97.957031"/>
     <use xlink:href="#DejaVuSans-72" x="157.136719"/>
     <use xlink:href="#DejaVuSans-20" x="198.25"/>
     <use xlink:href="#DejaVuSans-72" x="230.037109"/>
     <use xlink:href="#DejaVuSans-61" x="271.150391"/>
     <use xlink:href="#DejaVuSans-69" x="332.429688"/>
     <use xlink:href="#DejaVuSans-6e" x="360.212891"/>
     <use xlink:href="#DejaVuSans-66" x="423.591797"/>
     <use xlink:href="#DejaVuSans-61" x="458.796875"/>
     <use xlink:href="#DejaVuSans-6c" x="520.076172"/>
     <use xlink:href="#DejaVuSans-6c" x="547.859375"/>
    </g>
    <!-- return period -->
    <g style="fill: #6baed6" transform="translate(58.37 92.786548) scale(0.08 -0.08)">
     <defs>
      <path id="DejaVuSans-65" d="M 3597 1894 
L 3597 1613 
L 953 1613 
Q 991 1019 1311 708 
Q 1631 397 2203 397 
Q 2534 397 2845 478 
Q 3156 559 3463 722 
L 3463 178 
Q 3153 47 2828 -22 
Q 2503 -91 2169 -91 
Q 1331 -91 842 396 
Q 353 884 353 1716 
Q 353 2575 817 3079 
Q 1281 3584 2069 3584 
Q 2775 3584 3186 3129 
Q 3597 2675 3597 1894 
z
M 3022 2063 
Q 3016 2534 2758 2815 
Q 2500 3097 2075 3097 
Q 1594 3097 1305 2825 
Q 1016 2553 972 2059 
L 3022 2063 
z
" transform="scale(0.015625)"/>
      <path id="DejaVuSans-74" d="M 1172 4494 
L 1172 3500 
L 2356 3500 
L 2356 3053 
L 1172 3053 
L 1172 1153 
Q 1172 725 1289 603 
Q 1406 481 1766 481 
L 2356 481 
L 2356 0 
L 1766 0 
Q 1100 0 847 248 
Q 594 497 594 1153 
L 594 3053 
L 172 3053 
L 172 3500 
L 594 3500 
L 594 4494 
L 1172 4494 
z
" transform="scale(0.015625)"/>
      <path id="DejaVuSans-75" d="M 544 1381 
L 544 3500 
L 1119 3500 
L 1119 1403 
Q 1119 906 1312 657 
Q 1506 409 1894 409 
Q 2359 409 2629 706 
Q 2900 1003 2900 1516 
L 2900 3500 
L 3475 3500 
L 3475 0 
L 2900 0 
L 2900 538 
Q 2691 219 2414 64 
Q 2138 -91 1772 -91 
Q 1169 -91 856 284 
Q 544 659 544 1381 
z
M 1991 3584 
L 1991 3584 
z
" transform="scale(0.015625)"/>
      <path id="DejaVuSans-70" d="M 1159 525 
L 1159 -1331 
L 581 -1331 
L 581 3500 
L 1159 3500 
L 1159 2969 
Q 1341 3281 1617 3432 
Q 1894 3584 2278 3584 
Q 2916 3584 3314 3078 
Q 3713 2572 3713 1747 
Q 3713 922 3314 415 
Q 2916 -91 2278 -91 
Q 1894 -91 1617 61 
Q 1341 213 1159 525 
z
M 3116 1747 
Q 3116 2381 2855 2742 
Q 2594 3103 2138 3103 
Q 1681 3103 1420 2742 
Q 1159 2381 1159 1747 
Q 1159 1113 1420 752 
Q 1681 391 2138 391 
Q 2594 391 2855 752 
Q 3116 1113 3116 1747 
z
" transform="scale(0.015625)"/>
      <path id="DejaVuSans-6f" d="M 1959 3097 
Q 1497 3097 1228 2736 
Q 959 2375 959 1747 
Q 959 1119 1226 758 
Q 1494 397 1959 397 
Q 2419 397 2687 759 
Q 2956 1122 2956 1747 
Q 2956 2369 2687 2733 
Q 2419 3097 1959 3097 
z
M 1959 3584 
Q 2709 3584 3137 3096 
Q 3566 2609 3566 1747 
Q 3566 888 3137 398 
Q 2709 -91 1959 -91 
Q 1206 -91 779 398 
Q 353 888 353 1747 
Q 353 2609 779 3096 
Q 1206 3584 1959 3584 
z
" transform="scale(0.015625)"/>
      <path id="DejaVuSans-64" d="M 2906 2969 
L 2906 4863 
L 3481 4863 
L 3481 0 
L 2906 0 
L 2906 525 
Q 2725 213 2448 61 
Q 2172 -91 1784 -91 
Q 1150 -91 751 415 
Q 353 922 353 1747 
Q 353 2572 751 3078 
Q 1150 3584 1784 3584 
Q 2172 3584 2448 3432 
Q 2725 3281 2906 2969 
z
M 947 1747 
Q 947 1113 1208 752 
Q 1469 391 1925 391 
Q 2381 391 2643 752 
Q 2906 1113 2906 1747 
Q 2906 2381 2643 2742 
Q 2381 3103 1925 3103 
Q 1469 3103 1208 2742 
Q 947 2381 947 1747 
z
" transform="scale(0.015625)"/>
     </defs>
     <use xlink:href="#DejaVuSans-72"/>
     <use xlink:href="#DejaVuSans-65" x="38.863281"/>
     <use xlink:href="#DejaVuSans-74" x="100.386719"/>
     <use xlink:href="#DejaVuSans-75" x="139.595703"/>
     <use xlink:href="#DejaVuSans-72" x="202.974609"/>
     <use xlink:href="#DejaVuSans-6e" x="242.337891"/>
     <use xlink:href="#DejaVuSans-20" x="305.716797"/>
     <use xlink:href="#DejaVuSans-70" x="337.503906"/>
     <use xlink:href="#DejaVuSans-65" x="400.980469"/>
     <use xlink:href="#DejaVuSans-72" x="462.503906"/>
     <use xlink:href="#DejaVuSans-69" x="503.617188"/>
     <use xlink:href="#DejaVuSans-6f" x="531.400391"/>
     <use xlink:href="#DejaVuSans-64" x="592.582031"/>
    </g>
   </g>
   <g id="text_23">
    <!-- 5-yr rainfall -->
    <g style="fill: #2171b5" transform="translate(61.5875 55.432587) scale(0.08 -0.08)">
     <use xlink:href="#DejaVuSans-35"/>
     <use xlink:href="#DejaVuSans-2d" x="63.623047"/>
     <use xlink:href="#DejaVuSans-79" x="97.957031"/>
     <use xlink:href="#DejaVuSans-72" x="157.136719"/>
     <use xlink:href="#DejaVuSans-20" x="198.25"/>
     <use xlink:href="#DejaVuSans-72" x="230.037109"/>
     <use xlink:href="#DejaVuSans-61" x="271.150391"/>
     <use xlink:href="#DejaVuSans-69" x="332.429688"/>
     <use xlink:href="#DejaVuSans-6e" x="360.212891"/>
     <use xlink:href="#DejaVuSans-66" x="423.591797"/>
     <use xlink:href="#DejaVuSans-61" x="458.796875"/>
     <use xlink:href="#DejaVuSans-6c" x="520.076172"/>
     <use xlink:href="#DejaVuSans-6c" x="547.859375"/>
    </g>
    <!-- return period -->
    <g style="fill: #2171b5" transform="translate(58.37 64.390837) scale(0.08 -0.08)">
     <use xlink:href="#DejaVuSans-72"/>
     <use xlink:href="#DejaVuSans-65" x="38.863281"/>
     <use xlink:href="#DejaVuSans-74" x="100.386719"/>
     <use xlink:href="#DejaVuSans-75" x="139.595703"/>
     <use xlink:href="#DejaVuSans-72" x="202.974609"/>
     <use xlink:href="#DejaVuSans-6e" x="242.337891"/>
     <use xlink:href="#DejaVuSans-20" x="305.716797"/>
     <use xlink:href="#DejaVuSans-70" x="337.503906"/>
     <use xlink:href="#DejaVuSans-65" x="400.980469"/>
     <use xlink:href="#DejaVuSans-72" x="462.503906"/>
     <use xlink:href="#DejaVuSans-69" x="503.617188"/>
     <use xlink:href="#DejaVuSans-6f" x="531.400391"/>
     <use xlink:href="#DejaVuSans-64" x="592.582031"/>
    </g>
   </g>
   <g id="patch_21">
    <path d="M 149.7125 31.586722 
Q 149.7125 32.086546 149.7125 31.691943 
" style="fill: none; stroke: #000000; stroke-width: 0.8; stroke-linecap: round"/>
    <path d="M 151.3125 28.491943 
L 149.7125 31.691943 
L 148.1125 28.491943 
z
" style="stroke: #000000; stroke-width: 0.8; stroke-linecap: round"/>
   </g>
   <g id="text_24">
    <!-- Predecessor -->
    <g transform="translate(125.434375 16.964371) scale(0.08 -0.08)">
     <defs>
      <path id="DejaVuSans-50" d="M 1259 4147 
L 1259 2394 
L 2053 2394 
Q 2494 2394 2734 2622 
Q 2975 2850 2975 3272 
Q 2975 3691 2734 3919 
Q 2494 4147 2053 4147 
L 1259 4147 
z
M 628 4666 
L 2053 4666 
Q 2838 4666 3239 4311 
Q 3641 3956 3641 3272 
Q 3641 2581 3239 2228 
Q 2838 1875 2053 1875 
L 1259 1875 
L 1259 0 
L 628 0 
L 628 4666 
z
" transform="scale(0.015625)"/>
      <path id="DejaVuSans-63" d="M 3122 3366 
L 3122 2828 
Q 2878 2963 2633 3030 
Q 2388 3097 2138 3097 
Q 1578 3097 1268 2742 
Q 959 2388 959 1747 
Q 959 1106 1268 751 
Q 1578 397 2138 397 
Q 2388 397 2633 464 
Q 2878 531 3122 666 
L 3122 134 
Q 2881 22 2623 -34 
Q 2366 -91 2075 -91 
Q 1284 -91 818 406 
Q 353 903 353 1747 
Q 353 2603 823 3093 
Q 1294 3584 2113 3584 
Q 2378 3584 2631 3529 
Q 2884 3475 3122 3366 
z
" transform="scale(0.015625)"/>
      <path id="DejaVuSans-73" d="M 2834 3397 
L 2834 2853 
Q 2591 2978 2328 3040 
Q 2066 3103 1784 3103 
Q 1356 3103 1142 2972 
Q 928 2841 928 2578 
Q 928 2378 1081 2264 
Q 1234 2150 1697 2047 
L 1894 2003 
Q 2506 1872 2764 1633 
Q 3022 1394 3022 966 
Q 3022 478 2636 193 
Q 2250 -91 1575 -91 
Q 1294 -91 989 -36 
Q 684 19 347 128 
L 347 722 
Q 666 556 975 473 
Q 1284 391 1588 391 
Q 1994 391 2212 530 
Q 2431 669 2431 922 
Q 2431 1156 2273 1281 
Q 2116 1406 1581 1522 
L 1381 1569 
Q 847 1681 609 1914 
Q 372 2147 372 2553 
Q 372 3047 722 3315 
Q 1072 3584 1716 3584 
Q 2034 3584 2315 3537 
Q 2597 3491 2834 3397 
z
" transform="scale(0.015625)"/>
     </defs>
     <use xlink:href="#DejaVuSans-50"/>
     <use xlink:href="#DejaVuSans-72" x="58.552734"/>
     <use xlink:href="#DejaVuSans-65" x="97.416016"/>
     <use xlink:href="#DejaVuSans-64" x="158.939453"/>
     <use xlink:href="#DejaVuSans-65" x="222.416016"/>
     <use xlink:href="#DejaVuSans-63" x="283.939453"/>
     <use xlink:href="#DejaVuSans-65" x="338.919922"/>
     <use xlink:href="#DejaVuSans-73" x="400.443359"/>
     <use xlink:href="#DejaVuSans-73" x="452.542969"/>
     <use xlink:href="#DejaVuSans-6f" x="504.642578"/>
     <use xlink:href="#DejaVuSans-72" x="565.824219"/>
    </g>
    <!-- Rain #1 -->
    <g transform="translate(133.7575 25.922621) scale(0.08 -0.08)">
     <defs>
      <path id="DejaVuSans-23" d="M 3272 2816 
L 2363 2816 
L 2100 1772 
L 3016 1772 
L 3272 2816 
z
M 2803 4594 
L 2478 3297 
L 3391 3297 
L 3719 4594 
L 4219 4594 
L 3897 3297 
L 4872 3297 
L 4872 2816 
L 3775 2816 
L 3519 1772 
L 4513 1772 
L 4513 1294 
L 3397 1294 
L 3072 0 
L 2572 0 
L 2894 1294 
L 1978 1294 
L 1656 0 
L 1153 0 
L 1478 1294 
L 494 1294 
L 494 1772 
L 1594 1772 
L 1856 2816 
L 850 2816 
L 850 3297 
L 1978 3297 
L 2297 4594 
L 2803 4594 
z
" transform="scale(0.015625)"/>
     </defs>
     <use xlink:href="#DejaVuSans-52"/>
     <use xlink:href="#DejaVuSans-61" x="67.232422"/>
     <use xlink:href="#DejaVuSans-69" x="128.511719"/>
     <use xlink:href="#DejaVuSans-6e" x="156.294922"/>
     <use xlink:href="#DejaVuSans-20" x="219.673828"/>
     <use xlink:href="#DejaVuSans-23" x="251.460938"/>
     <use xlink:href="#DejaVuSans-31" x="335.25"/>
    </g>
   </g>
   <g id="patch_22">
    <path d="M 301.6125 31.586722 
Q 301.6125 32.086546 301.6125 31.691943 
" style="fill: none; stroke: #000000; stroke-width: 0.8; stroke-linecap: round"/>
    <path d="M 303.2125 28.491943 
L 301.6125 31.691943 
L 300.0125 28.491943 
z
" style="stroke: #000000; stroke-width: 0.8; stroke-linecap: round"/>
   </g>
   <g id="text_25">
    <!-- Predecessor -->
    <g transform="translate(277.334375 16.964371) scale(0.08 -0.08)">
     <use xlink:href="#DejaVuSans-50"/>
     <use xlink:href="#DejaVuSans-72" x="58.552734"/>
     <use xlink:href="#DejaVuSans-65" x="97.416016"/>
     <use xlink:href="#DejaVuSans-64" x="158.939453"/>
     <use xlink:href="#DejaVuSans-65" x="222.416016"/>
     <use xlink:href="#DejaVuSans-63" x="283.939453"/>
     <use xlink:href="#DejaVuSans-65" x="338.919922"/>
     <use xlink:href="#DejaVuSans-73" x="400.443359"/>
     <use xlink:href="#DejaVuSans-73" x="452.542969"/>
     <use xlink:href="#DejaVuSans-6f" x="504.642578"/>
     <use xlink:href="#DejaVuSans-72" x="565.824219"/>
    </g>
    <!-- Rain #2 -->
    <g transform="translate(285.6575 25.922621) scale(0.08 -0.08)">
     <use xlink:href="#DejaVuSans-52"/>
     <use xlink:href="#DejaVuSans-61" x="67.232422"/>
     <use xlink:href="#DejaVuSans-69" x="128.511719"/>
     <use xlink:href="#DejaVuSans-6e" x="156.294922"/>
     <use xlink:href="#DejaVuSans-20" x="219.673828"/>
     <use xlink:href="#DejaVuSans-23" x="251.460938"/>
     <use xlink:href="#DejaVuSans-32" x="335.25"/>
    </g>
   </g>
   <g id="patch_23">
    <path d="M 399.2625 31.586722 
Q 399.2625 32.086546 399.2625 31.691943 
" style="fill: none; stroke: #000000; stroke-width: 0.8; stroke-linecap: round"/>
    <path d="M 400.8625 28.491943 
L 399.2625 31.691943 
L 397.6625 28.491943 
z
" style="stroke: #000000; stroke-width: 0.8; stroke-linecap: round"/>
   </g>
   <g id="text_26">
    <!-- Typhoon -->
    <g transform="translate(382.5725 16.964371) scale(0.08 -0.08)">
     <defs>
      <path id="DejaVuSans-54" d="M -19 4666 
L 3928 4666 
L 3928 4134 
L 2272 4134 
L 2272 0 
L 1638 0 
L 1638 4134 
L -19 4134 
L -19 4666 
z
" transform="scale(0.015625)"/>
      <path id="DejaVuSans-68" d="M 3513 2113 
L 3513 0 
L 2938 0 
L 2938 2094 
Q 2938 2591 2744 2837 
Q 2550 3084 2163 3084 
Q 1697 3084 1428 2787 
Q 1159 2491 1159 1978 
L 1159 0 
L 581 0 
L 581 4863 
L 1159 4863 
L 1159 2956 
Q 1366 3272 1645 3428 
Q 1925 3584 2291 3584 
Q 2894 3584 3203 3211 
Q 3513 2838 3513 2113 
z
" transform="scale(0.015625)"/>
     </defs>
     <use xlink:href="#DejaVuSans-54"/>
     <use xlink:href="#DejaVuSans-79" x="45.458984"/>
     <use xlink:href="#DejaVuSans-70" x="104.638672"/>
     <use xlink:href="#DejaVuSans-68" x="168.115234"/>
     <use xlink:href="#DejaVuSans-6f" x="231.494141"/>
     <use xlink:href="#DejaVuSans-6f" x="292.675781"/>
     <use xlink:href="#DejaVuSans-6e" x="353.857422"/>
    </g>
    <!-- Impact -->
    <g transform="translate(385.428125 25.922621) scale(0.08 -0.08)">
     <defs>
      <path id="DejaVuSans-49" d="M 628 4666 
L 1259 4666 
L 1259 0 
L 628 0 
L 628 4666 
z
" transform="scale(0.015625)"/>
     </defs>
     <use xlink:href="#DejaVuSans-49"/>
     <use xlink:href="#DejaVuSans-6d" x="29.492188"/>
     <use xlink:href="#DejaVuSans-70" x="126.904297"/>
     <use xlink:href="#DejaVuSans-61" x="190.380859"/>
     <use xlink:href="#DejaVuSans-63" x="251.660156"/>
     <use xlink:href="#DejaVuSans-74" x="306.640625"/>
    </g>
   </g>
   <g id="legend_1">
    <g id="patch_24">
     <path d="M 48.4125 126.494044 
L 60.4125 126.494044 
L 60.4125 119.334044 
L 48.4125 119.334044 
z
" style="fill: #1f77b4"/>
    </g>
    <g id="text_27">
     <!-- Rainfall -->
     <g transform="translate(66.8125 125.654044) scale(0.08 -0.08)">
      <use xlink:href="#DejaVuSans-52"/>
      <use xlink:href="#DejaVuSans-61" x="67.232422"/>
      <use xlink:href="#DejaVuSans-69" x="128.511719"/>
      <use xlink:href="#DejaVuSans-6e" x="156.294922"/>
      <use xlink:href="#DejaVuSans-66" x="219.673828"/>
      <use xlink:href="#DejaVuSans-61" x="254.878906"/>
      <use xlink:href="#DejaVuSans-6c" x="316.158203"/>
      <use xlink:href="#DejaVuSans-6c" x="343.941406"/>
     </g>
    </g>
    <g id="line2d_23">
     <path d="M 48.4125 134.477794 
L 54.4125 134.477794 
L 60.4125 134.477794 
" style="fill: none; stroke: #d62728; stroke-width: 1.5; stroke-linecap: square"/>
    </g>
    <g id="text_28">
     <!-- Water/Level -->
     <g transform="translate(66.8125 137.637794) scale(0.08 -0.08)">
      <defs>
       <path id="DejaVuSans-57" d="M 213 4666 
L 850 4666 
L 1831 722 
L 2809 4666 
L 3519 4666 
L 4500 722 
L 5478 4666 
L 6119 4666 
L 4947 0 
L 4153 0 
L 3169 4050 
L 2175 0 
L 1381 0 
L 213 4666 
z
" transform="scale(0.015625)"/>
       <path id="DejaVuSans-4c" d="M 628 4666 
L 1259 4666 
L 1259 531 
L 3531 531 
L 3531 0 
L 628 0 
L 628 4666 
z
" transform="scale(0.015625)"/>
       <path id="DejaVuSans-76" d="M 191 3500 
L 800 3500 
L 1894 563 
L 2988 3500 
L 3597 3500 
L 2284 0 
L 1503 0 
L 191 3500 
z
" transform="scale(0.015625)"/>
      </defs>
      <use xlink:href="#DejaVuSans-57"/>
      <use xlink:href="#DejaVuSans-61" x="92.501953"/>
      <use xlink:href="#DejaVuSans-74" x="153.78125"/>
      <use xlink:href="#DejaVuSans-65" x="192.990234"/>
      <use xlink:href="#DejaVuSans-72" x="254.513672"/>
      <use xlink:href="#DejaVuSans-2f" x="295.626953"/>
      <use xlink:href="#DejaVuSans-4c" x="329.318359"/>
      <use xlink:href="#DejaVuSans-65" x="383.28125"/>
      <use xlink:href="#DejaVuSans-76" x="444.804688"/>
      <use xlink:href="#DejaVuSans-65" x="503.984375"/>
      <use xlink:href="#DejaVuSans-6c" x="565.507812"/>
     </g>
    </g>
   </g>
  </g>
  <g id="axes_2">
   <g id="matplotlib.axis_3">
    <g id="ytick_7">
     <g id="line2d_24">
      <defs>
       <path id="m36aa9b53c6" d="M 0 0 
L 3.5 0 
" style="stroke: #d62728; stroke-width: 0.8"/>
      </defs>
      <g>
       <use xlink:href="#m36aa9b53c6" x="431.8125" y="146.501544" style="fill: #d62728; stroke: #d62728; stroke-width: 0.8"/>
      </g>
     </g>
     <g id="text_29">
      <!-- 0 -->
      <g style="fill: #d62728" transform="translate(438.8125 149.540919) scale(0.08 -0.08)">
       <use xlink:href="#DejaVuSans-30"/>
      </g>
     </g>
    </g>
    <g id="ytick_8">
     <g id="line2d_25">
      <g>
       <use xlink:href="#m36aa9b53c6" x="431.8125" y="127.03552" style="fill: #d62728; stroke: #d62728; stroke-width: 0.8"/>
      </g>
     </g>
     <g id="text_30">
      <!-- 1 -->
      <g style="fill: #d62728" transform="translate(438.8125 130.074895) scale(0.08 -0.08)">
       <use xlink:href="#DejaVuSans-31"/>
      </g>
     </g>
    </g>
    <g id="ytick_9">
     <g id="line2d_26">
      <g>
       <use xlink:href="#m36aa9b53c6" x="431.8125" y="107.569495" style="fill: #d62728; stroke: #d62728; stroke-width: 0.8"/>
      </g>
     </g>
     <g id="text_31">
      <!-- 2 -->
      <g style="fill: #d62728" transform="translate(438.8125 110.60887) scale(0.08 -0.08)">
       <use xlink:href="#DejaVuSans-32"/>
      </g>
     </g>
    </g>
    <g id="ytick_10">
     <g id="line2d_27">
      <g>
       <use xlink:href="#m36aa9b53c6" x="431.8125" y="88.103471" style="fill: #d62728; stroke: #d62728; stroke-width: 0.8"/>
      </g>
     </g>
     <g id="text_32">
      <!-- 3 -->
      <g style="fill: #d62728" transform="translate(438.8125 91.142846) scale(0.08 -0.08)">
       <use xlink:href="#DejaVuSans-33"/>
      </g>
     </g>
    </g>
    <g id="ytick_11">
     <g id="line2d_28">
      <g>
       <use xlink:href="#m36aa9b53c6" x="431.8125" y="68.637447" style="fill: #d62728; stroke: #d62728; stroke-width: 0.8"/>
      </g>
     </g>
     <g id="text_33">
      <!-- 4 -->
      <g style="fill: #d62728" transform="translate(438.8125 71.676822) scale(0.08 -0.08)">
       <use xlink:href="#DejaVuSans-34"/>
      </g>
     </g>
    </g>
    <g id="ytick_12">
     <g id="line2d_29">
      <g>
       <use xlink:href="#m36aa9b53c6" x="431.8125" y="49.171423" style="fill: #d62728; stroke: #d62728; stroke-width: 0.8"/>
      </g>
     </g>
     <g id="text_34">
      <!-- 5 -->
      <g style="fill: #d62728" transform="translate(438.8125 52.210798) scale(0.08 -0.08)">
       <use xlink:href="#DejaVuSans-35"/>
      </g>
     </g>
    </g>
    <g id="ytick_13">
     <g id="line2d_30">
      <g>
       <use xlink:href="#m36aa9b53c6" x="431.8125" y="29.705399" style="fill: #d62728; stroke: #d62728; stroke-width: 0.8"/>
      </g>
     </g>
     <g id="text_35">
      <!-- 6 -->
      <g style="fill: #d62728" transform="translate(438.8125 32.744774) scale(0.08 -0.08)">
       <use xlink:href="#DejaVuSans-36"/>
      </g>
     </g>
    </g>
    <g id="ytick_14">
     <g id="line2d_31">
      <g>
       <use xlink:href="#m36aa9b53c6" x="431.8125" y="10.239375" style="fill: #d62728; stroke: #d62728; stroke-width: 0.8"/>
      </g>
     </g>
     <g id="text_36">
      <!-- 7 -->
      <g style="fill: #d62728" transform="translate(438.8125 13.27875) scale(0.08 -0.08)">
       <use xlink:href="#DejaVuSans-37"/>
      </g>
     </g>
    </g>
    <g id="text_37">
     <!-- Water Level (m) -->
     <g style="fill: #d62728" transform="translate(453.98125 110.315459) rotate(-90) scale(0.08 -0.08)">
      <use xlink:href="#DejaVuSans-57"/>
      <use xlink:href="#DejaVuSans-61" x="92.501953"/>
      <use xlink:href="#DejaVuSans-74" x="153.78125"/>
      <use xlink:href="#DejaVuSans-65" x="192.990234"/>
      <use xlink:href="#DejaVuSans-72" x="254.513672"/>
      <use xlink:href="#DejaVuSans-20" x="295.626953"/>
      <use xlink:href="#DejaVuSans-4c" x="327.414062"/>
      <use xlink:href="#DejaVuSans-65" x="381.376953"/>
      <use xlink:href="#DejaVuSans-76" x="442.900391"/>
      <use xlink:href="#DejaVuSans-65" x="502.080078"/>
      <use xlink:href="#DejaVuSans-6c" x="563.603516"/>
      <use xlink:href="#DejaVuSans-20" x="591.386719"/>
      <use xlink:href="#DejaVuSans-28" x="623.173828"/>
      <use xlink:href="#DejaVuSans-6d" x="662.1875"/>
      <use xlink:href="#DejaVuSans-29" x="759.599609"/>
     </g>
    </g>
   </g>
   <g id="line2d_32">
    <path d="M 128.0125 110.299839 
L 128.916667 117.209655 
L 129.820833 122.47755 
L 130.725 125.749399 
L 131.629167 107.494746 
L 132.533333 91.946123 
L 133.4375 78.628773 
L 134.341667 72.985573 
L 135.245833 75.35381 
L 136.15 80.569925 
L 137.054167 90.579491 
L 137.958333 104.612081 
L 138.8625 111.7084 
L 139.766667 116.1209 
L 140.670833 121.454416 
L 141.575 119.515678 
L 143.383333 88.4371 
L 144.2875 76.932893 
L 145.191667 70.329629 
L 146.095833 71.914942 
L 147 76.577055 
L 148.808333 101.775404 
L 151.520833 122.387033 
L 152.425 124.813862 
L 153.329167 114.66529 
L 154.233333 98.42777 
L 155.1375 84.589426 
L 156.041667 75.759871 
L 156.945833 73.495778 
L 157.85 76.237762 
L 158.754167 83.612562 
L 159.658333 96.007534 
L 160.5625 105.1881 
L 161.466667 110.036191 
L 162.370833 116.000386 
L 163.275 119.939959 
L 164.179167 113.71198 
L 165.9875 85.331938 
L 166.891667 76.460258 
L 167.795833 73.228898 
L 168.7 76.410425 
L 169.604167 83.134399 
L 170.508333 95.455594 
L 171.4125 105.266237 
L 172.316667 110.542171 
L 173.220833 117.097355 
L 174.125 122.771682 
L 175.029167 120.86187 
L 176.8375 93.154165 
L 177.741667 82.160241 
L 178.645833 75.673442 
L 179.55 76.025971 
L 180.454167 79.091676 
L 181.358333 88.418918 
L 182.2625 99.288516 
L 183.166667 105.555949 
L 184.070833 110.125793 
L 184.975 115.354328 
L 185.879167 115.938465 
L 186.783333 106.826653 
L 187.6875 94.703076 
L 188.591667 84.660594 
L 189.495833 78.468179 
L 190.4 78.672377 
L 191.304167 82.295141 
L 192.208333 90.565125 
L 193.1125 100.896064 
L 194.016667 107.633811 
L 194.920833 112.411533 
L 195.825 118.165904 
L 196.729167 120.66721 
L 197.633333 114.782592 
L 199.441667 90.700239 
L 200.345833 81.760643 
L 201.25 77.691095 
L 202.154167 77.81159 
L 203.058333 81.928245 
L 204.866667 99.398912 
L 206.675 108.934317 
L 207.579167 113.122374 
L 208.483333 112.288897 
L 209.3875 104.828465 
L 210.291667 95.413275 
L 211.195833 87.73058 
L 212.1 83.265736 
L 213.004167 83.88534 
L 213.908333 87.537633 
L 214.8125 94.671464 
L 215.716667 102.70005 
L 216.620833 108.097005 
L 218.429167 116.395663 
L 219.333333 117.103759 
L 220.2375 111.488473 
L 222.045833 91.720161 
L 222.95 83.78544 
L 223.854167 79.682469 
L 224.758333 78.858667 
L 225.6625 82.251342 
L 227.470833 96.445013 
L 229.279167 106.360519 
L 230.183333 110.805839 
L 231.0875 111.722182 
L 231.991667 108.092625 
L 233.8 93.979485 
L 234.704167 88.935936 
L 235.608333 87.753589 
L 236.5125 89.849632 
L 237.416667 94.356387 
L 239.225 106.394896 
L 240.129167 110.046411 
L 241.033333 113.120077 
L 241.9375 114.611096 
L 242.841667 112.150883 
L 243.745833 104.94785 
L 245.554167 86.842482 
L 246.458333 80.752322 
L 247.3625 78.095404 
L 248.266667 79.103355 
L 249.170833 84.446759 
L 250.979167 98.445766 
L 252.7875 109.718447 
L 253.691667 113.619808 
L 254.595833 113.710695 
L 255.5 108.850769 
L 257.308333 93.247407 
L 258.2125 88.677408 
L 259.116667 88.006939 
L 260.020833 90.457829 
L 260.925 95.350108 
L 261.829167 102.512203 
L 262.733333 108.345178 
L 263.6375 111.602116 
L 264.541667 114.425273 
L 265.445833 115.40858 
L 266.35 110.719351 
L 269.0625 80.182357 
L 269.966667 75.241101 
L 270.870833 74.395108 
L 271.775 78.297462 
L 273.583333 96.546334 
L 275.391667 109.996033 
L 276.295833 116.345733 
L 277.2 119.0271 
L 278.104167 115.182054 
L 279.9125 93.664973 
L 280.816667 86.613114 
L 281.720833 83.56234 
L 282.625 85.794684 
L 283.529167 90.316272 
L 285.3375 108.110515 
L 286.241667 112.638954 
L 288.05 119.662802 
L 288.954167 116.394885 
L 291.666667 77.574104 
L 292.570833 70.579573 
L 293.475 69.876849 
L 294.379167 73.441467 
L 296.1875 96.540766 
L 297.091667 104.626135 
L 297.995833 111.299809 
L 298.9 119.094842 
L 299.804167 123.33425 
L 300.708333 118.383047 
L 301.6125 103.158222 
L 302.516667 90.076762 
L 303.420833 81.947069 
L 304.325 78.298435 
L 305.229167 81.630512 
L 306.133333 87.214731 
L 307.941667 109.124422 
L 310.654167 124.055661 
L 311.558333 120.337455 
L 313.366667 85.845082 
L 314.270833 73.317469 
L 315.175 65.917849 
L 316.079167 66.542708 
L 316.983333 71.330766 
L 318.791667 98.620254 
L 321.504167 122.54062 
L 322.408333 126.991916 
L 323.3125 117.794141 
L 324.216667 99.198348 
L 325.120833 84.661762 
L 326.025 77.201525 
L 326.929167 74.533511 
L 327.833333 79.244873 
L 328.7375 86.786381 
L 329.641667 101.006479 
L 330.545833 111.089245 
L 331.45 115.867336 
L 332.354167 122.513368 
L 333.258333 128.225672 
L 334.1625 121.035507 
L 335.970833 80.755047 
L 336.875 69.090422 
L 337.779167 62.64892 
L 338.683333 65.153808 
L 339.5875 72.089747 
L 340.491667 88.197083 
L 341.395833 101.941963 
L 342.3 108.871831 
L 344.108333 126.299899 
L 345.0125 129.139018 
L 347.725 78.335226 
L 348.629167 72.164691 
L 349.533333 72.579123 
L 350.4375 78.603662 
L 351.341667 89.010569 
L 352.245833 104.357426 
L 353.15 112.460957 
L 354.054167 117.724511 
L 354.958333 125.972091 
L 355.8625 130.998997 
L 356.766667 116.439559 
L 357.670833 93.859146 
L 358.575 74.964294 
L 359.479167 65.202083 
L 360.383333 61.293695 
L 361.2875 65.84855 
L 362.191667 75.767657 
L 363.095833 93.500504 
L 364 105.139221 
L 364.904167 111.285988 
L 366.7125 129.664017 
L 367.616667 128.297307 
L 368.520833 104.318669 
L 369.425 85.331295 
L 370.329167 72.777676 
L 371.233333 67.569347 
L 372.1375 72.084491 
L 373.041667 79.137031 
L 374.85 107.526281 
L 376.658333 120.529196 
L 377.5625 129.239852 
L 378.466667 131.340625 
L 380.275 86.573559 
L 381.179167 69.569091 
L 382.083333 61.353845 
L 382.9875 61.921085 
L 383.891667 67.895792 
L 384.795833 80.959149 
L 385.7 97.969456 
L 386.604167 106.817056 
L 387.508333 113.41633 
L 388.4125 123.208694 
L 389.316667 129.137461 
L 390.220833 114.266839 
L 391.125 91.538952 
L 392.029167 73.357179 
L 392.933333 64.207564 
L 393.8375 59.709939 
L 394.741667 63.564991 
L 395.645833 72.887075 
L 396.55 89.70646 
L 397.454167 99.736241 
L 398.358333 104.012761 
L 399.2625 110.743178 
L 400.166667 113.790993 
L 401.070833 99.908842 
L 402.879167 60.230655 
L 403.783333 46.760167 
L 404.6875 40.99764 
L 405.591667 41.615491 
L 406.495833 49.149037 
L 407.4 63.179758 
L 409.208333 85.243328 
L 411.016667 112.942877 
L 411.920833 121.227831 
L 412.825 123.039339 
L 413.729167 113.855191 
L 414.633333 92.270135 
L 415.5375 78.294737 
L 416.441667 75.288793 
L 417.345833 83.082269 
L 418.25 94.973829 
L 419.154167 105.311223 
L 420.058333 118.976041 
L 420.9625 125.62579 
L 421.866667 130.515655 
L 422.770833 134.614227 
L 423.675 115.111178 
L 424.579167 91.331775 
L 425.483333 76.360787 
L 426.3875 74.222639 
L 427.291667 74.126671 
L 428.195833 73.15337 
L 429.1 77.821907 
L 429.1 77.821907 
" clip-path="url(#pc8e664083b)" style="fill: none; stroke: #d62728; stroke-width: 2; stroke-linecap: square"/>
   </g>
   <g id="line2d_33">
    <path d="M 128.0125 110.466663 
L 129.820833 125.358911 
L 130.725 125.337498 
L 132.533333 91.680587 
L 133.4375 79.213922 
L 134.341667 72.838215 
L 135.245833 74.881369 
L 136.15 79.384834 
L 137.054167 89.874802 
L 137.958333 102.895431 
L 138.8625 109.667252 
L 139.766667 114.511917 
L 140.670833 120.879779 
L 141.575 121.794682 
L 144.2875 78.09521 
L 145.191667 71.098342 
L 146.095833 72.295697 
L 147 76.868461 
L 147.904167 87.503918 
L 148.808333 100.922304 
L 149.7125 108.35349 
L 150.616667 113.939051 
L 151.520833 121.544933 
L 152.425 125.534884 
L 153.329167 116.618063 
L 154.233333 99.627179 
L 155.1375 85.284363 
L 156.041667 76.744073 
L 156.945833 73.993913 
L 157.85 77.158894 
L 158.754167 83.73695 
L 159.658333 96.365747 
L 160.5625 105.875815 
L 161.466667 110.316015 
L 162.370833 116.042472 
L 163.275 120.194575 
L 164.179167 114.211731 
L 165.9875 85.718436 
L 166.891667 77.025357 
L 167.795833 73.946221 
L 168.7 77.263037 
L 169.604167 83.76066 
L 170.508333 96.191312 
L 171.4125 105.996057 
L 172.316667 111.017902 
L 174.125 123.143288 
L 175.029167 121.368181 
L 176.8375 93.500796 
L 177.741667 82.569982 
L 178.645833 76.186566 
L 179.55 76.687232 
L 180.454167 79.694928 
L 181.358333 88.900138 
L 182.2625 99.934736 
L 183.166667 106.194746 
L 184.070833 110.564402 
L 184.975 115.756749 
L 185.879167 116.501344 
L 186.783333 107.327007 
L 187.6875 95.085428 
L 188.591667 84.980926 
L 189.495833 78.821682 
L 190.4 79.156303 
L 191.304167 82.761469 
L 192.208333 90.959001 
L 193.1125 101.548134 
L 194.016667 108.275548 
L 194.920833 112.835113 
L 195.825 118.552401 
L 196.729167 121.196686 
L 197.633333 115.295736 
L 199.441667 90.910083 
L 200.345833 82.001223 
L 201.25 78.080221 
L 202.154167 78.319069 
L 203.058333 82.286011 
L 204.866667 99.984847 
L 206.675 109.328134 
L 207.579167 113.551463 
L 208.483333 112.765425 
L 209.3875 105.184557 
L 210.291667 95.667034 
L 211.195833 87.954517 
L 212.1 83.431022 
L 213.004167 84.202597 
L 213.908333 87.811131 
L 214.8125 95.012216 
L 215.716667 103.240388 
L 216.620833 108.611862 
L 218.429167 116.754636 
L 219.333333 117.522863 
L 220.2375 111.840536 
L 222.045833 91.808732 
L 222.95 83.892601 
L 223.854167 79.960834 
L 224.758333 79.199907 
L 225.6625 82.527701 
L 227.470833 96.908791 
L 229.279167 106.687256 
L 230.183333 111.14809 
L 231.0875 112.079072 
L 231.991667 108.372936 
L 233.8 94.146737 
L 234.704167 89.063672 
L 235.608333 87.891662 
L 236.5125 90.060001 
L 237.416667 94.576859 
L 239.225 106.837437 
L 240.129167 110.389577 
L 241.033333 113.413916 
L 241.9375 114.897539 
L 242.841667 112.384572 
L 243.745833 105.093145 
L 245.554167 86.973839 
L 246.458333 80.989224 
L 247.3625 78.400048 
L 248.266667 79.387559 
L 249.170833 84.722963 
L 250.979167 98.712048 
L 252.7875 109.983029 
L 253.691667 113.885597 
L 254.595833 113.917794 
L 255.5 108.99692 
L 257.308333 93.352874 
L 258.2125 88.820794 
L 259.116667 88.168546 
L 260.020833 90.631349 
L 260.925 95.547863 
L 261.829167 102.779199 
L 262.733333 108.648244 
L 263.6375 111.856011 
L 264.541667 114.631243 
L 265.445833 115.563413 
L 266.35 110.774206 
L 269.0625 80.346611 
L 269.966667 75.479171 
L 270.870833 74.647777 
L 271.775 78.529886 
L 273.583333 96.729957 
L 275.391667 110.177242 
L 276.295833 116.530855 
L 277.2 119.150709 
L 278.104167 115.202591 
L 279.9125 93.699467 
L 280.816667 86.709451 
L 281.720833 83.706291 
L 282.625 85.930421 
L 283.529167 90.490707 
L 285.3375 108.29223 
L 286.241667 112.807647 
L 288.05 119.741016 
L 288.954167 116.370941 
L 291.666667 77.658198 
L 292.570833 70.770145 
L 293.475 70.088055 
L 294.379167 73.630288 
L 296.1875 96.665407 
L 297.091667 104.72623 
L 297.995833 111.398501 
L 298.9 119.180706 
L 299.804167 123.370262 
L 300.708333 118.258718 
L 301.6125 103.083901 
L 302.516667 90.041801 
L 303.420833 81.999822 
L 304.325 78.379608 
L 305.229167 81.72356 
L 306.133333 87.348345 
L 307.941667 109.218404 
L 310.654167 124.036 
L 311.558333 120.207617 
L 313.366667 85.796494 
L 314.270833 73.343748 
L 315.175 66.035229 
L 316.079167 66.693959 
L 316.983333 71.46917 
L 318.791667 98.68653 
L 321.504167 122.520181 
L 322.408333 126.932934 
L 323.3125 117.553892 
L 324.216667 99.069905 
L 325.120833 84.570154 
L 326.025 77.196074 
L 326.929167 74.602032 
L 327.833333 79.325462 
L 328.7375 86.885093 
L 329.641667 101.079798 
L 330.545833 111.114745 
L 331.45 115.868523 
L 332.354167 122.466454 
L 333.258333 128.117831 
L 334.1625 120.792376 
L 335.970833 80.65178 
L 336.875 69.074265 
L 337.779167 62.723864 
L 338.683333 65.251722 
L 339.5875 72.204402 
L 340.491667 88.243276 
L 341.395833 101.956662 
L 342.3 108.868638 
L 344.108333 126.201595 
L 345.0125 128.989324 
L 347.725 78.21551 
L 348.629167 72.097338 
L 349.533333 72.606764 
L 350.4375 78.663228 
L 351.341667 89.083508 
L 352.245833 104.354292 
L 353.15 112.421636 
L 354.054167 117.664926 
L 354.958333 125.849844 
L 355.8625 130.820299 
L 356.766667 116.147978 
L 357.670833 93.68222 
L 358.575 74.820051 
L 359.479167 65.127139 
L 360.383333 61.34236 
L 361.2875 65.917654 
L 362.191667 75.85175 
L 363.095833 93.497176 
L 364 105.101749 
L 364.904167 111.236622 
L 366.7125 129.512182 
L 367.616667 128.022642 
L 368.520833 104.078011 
L 369.425 85.104166 
L 370.329167 72.652704 
L 371.233333 67.506471 
L 372.1375 72.097144 
L 373.041667 79.188422 
L 374.85 107.461595 
L 376.658333 120.402472 
L 377.5625 129.059402 
L 378.466667 131.086789 
L 380.275 86.437238 
L 381.179167 69.569286 
L 382.083333 61.566609 
L 382.9875 62.413575 
L 383.891667 68.607664 
L 384.795833 81.786338 
L 385.7 99.021472 
L 386.604167 107.946027 
L 387.508333 114.70539 
L 388.4125 124.82379 
L 389.316667 131.674857 
L 390.220833 120.216182 
L 391.125 96.09879 
L 392.029167 77.963814 
L 392.933333 69.626127 
L 393.8375 66.292959 
L 394.741667 72.697281 
L 395.645833 81.395752 
L 396.55 98.486123 
L 397.454167 109.596551 
L 398.358333 114.760401 
L 400.166667 131.292934 
L 401.070833 126.662745 
L 401.975 100.367232 
L 402.879167 79.12321 
L 403.783333 66.743403 
L 404.6875 60.599342 
L 405.591667 65.364235 
L 406.495833 72.924255 
L 407.4 89.634085 
L 408.304167 104.201348 
L 409.208333 110.660389 
L 410.1125 118.823816 
L 411.016667 128.5163 
L 411.920833 131.424135 
L 413.729167 88.141294 
L 414.633333 72.348645 
L 415.5375 66.211786 
L 416.441667 67.785225 
L 417.345833 74.471415 
L 418.25 86.294961 
L 419.154167 102.658626 
L 420.058333 110.633136 
L 420.9625 116.651427 
L 421.866667 125.929655 
L 422.770833 131.465403 
L 423.675 115.683499 
L 424.579167 92.523213 
L 425.483333 74.156065 
L 426.3875 66.094601 
L 427.291667 63.628255 
L 428.195833 69.710999 
L 429.1 79.71634 
L 429.1 79.71634 
" clip-path="url(#pc8e664083b)" style="fill: none; stroke: #ffd700; stroke-width: 0.6; stroke-linecap: square"/>
   </g>
   <g id="line2d_34">
    <path d="M 41.2125 41.385014 
L 431.8125 41.385014 
" clip-path="url(#pc8e664083b)" style="fill: none; stroke-dasharray: 7.4,3.2; stroke-dashoffset: 0; stroke: #ff7f0e; stroke-width: 2"/>
   </g>
   <g id="patch_25">
    <path d="M 41.2125 146.501544 
L 41.2125 10.239375 
" style="fill: none; stroke: #000000; stroke-width: 0.8; stroke-linejoin: miter; stroke-linecap: square"/>
   </g>
   <g id="patch_26">
    <path d="M 431.8125 146.501544 
L 431.8125 10.239375 
" style="fill: none; stroke: #000000; stroke-width: 0.8; stroke-linejoin: miter; stroke-linecap: square"/>
   </g>
   <g id="patch_27">
    <path d="M 41.2125 146.501544 
L 431.8125 146.501544 
" style="fill: none; stroke: #000000; stroke-width: 0.8; stroke-linejoin: miter; stroke-linecap: square"/>
   </g>
   <g id="patch_28">
    <path d="M 41.2125 10.239375 
L 431.8125 10.239375 
" style="fill: none; stroke: #000000; stroke-width: 0.8; stroke-linejoin: miter; stroke-linecap: square"/>
   </g>
   <g id="text_38">
    <!-- 10-yr water level -->
    <g style="fill: #ff7f0e" transform="translate(50.68625 30.763014) scale(0.08 -0.08)">
     <defs>
      <path id="DejaVuSans-77" d="M 269 3500 
L 844 3500 
L 1563 769 
L 2278 3500 
L 2956 3500 
L 3675 769 
L 4391 3500 
L 4966 3500 
L 4050 0 
L 3372 0 
L 2619 2869 
L 1863 0 
L 1184 0 
L 269 3500 
z
" transform="scale(0.015625)"/>
     </defs>
     <use xlink:href="#DejaVuSans-31"/>
     <use xlink:href="#DejaVuSans-30" x="63.623047"/>
     <use xlink:href="#DejaVuSans-2d" x="127.246094"/>
     <use xlink:href="#DejaVuSans-79" x="161.580078"/>
     <use xlink:href="#DejaVuSans-72" x="220.759766"/>
     <use xlink:href="#DejaVuSans-20" x="261.873047"/>
     <use xlink:href="#DejaVuSans-77" x="293.660156"/>
     <use xlink:href="#DejaVuSans-61" x="375.447266"/>
     <use xlink:href="#DejaVuSans-74" x="436.726562"/>
     <use xlink:href="#DejaVuSans-65" x="475.935547"/>
     <use xlink:href="#DejaVuSans-72" x="537.458984"/>
     <use xlink:href="#DejaVuSans-20" x="578.572266"/>
     <use xlink:href="#DejaVuSans-6c" x="610.359375"/>
     <use xlink:href="#DejaVuSans-65" x="638.142578"/>
     <use xlink:href="#DejaVuSans-76" x="699.666016"/>
     <use xlink:href="#DejaVuSans-65" x="758.845703"/>
     <use xlink:href="#DejaVuSans-6c" x="820.369141"/>
    </g>
    <!-- return period -->
    <g style="fill: #ff7f0e" transform="translate(58.37 39.721264) scale(0.08 -0.08)">
     <use xlink:href="#DejaVuSans-72"/>
     <use xlink:href="#DejaVuSans-65" x="38.863281"/>
     <use xlink:href="#DejaVuSans-74" x="100.386719"/>
     <use xlink:href="#DejaVuSans-75" x="139.595703"/>
     <use xlink:href="#DejaVuSans-72" x="202.974609"/>
     <use xlink:href="#DejaVuSans-6e" x="242.337891"/>
     <use xlink:href="#DejaVuSans-20" x="305.716797"/>
     <use xlink:href="#DejaVuSans-70" x="337.503906"/>
     <use xlink:href="#DejaVuSans-65" x="400.980469"/>
     <use xlink:href="#DejaVuSans-72" x="462.503906"/>
     <use xlink:href="#DejaVuSans-69" x="503.617188"/>
     <use xlink:href="#DejaVuSans-6f" x="531.400391"/>
     <use xlink:href="#DejaVuSans-64" x="592.582031"/>
    </g>
   </g>
  </g>
 </g>
 <defs>
  <clipPath id="pc8e664083b">
   <rect x="41.2125" y="10.239375" width="390.6" height="136.262169"/>
  </clipPath>
 </defs>
</svg>
